# xmcd
#
# Track frame offsets:
#	150
#	10547
#	22825
#	33555
#	41617
#	50810
#	57757
#	63400
#	69217
#	75690
#
# Disc length: 1293 seconds
#
# Revision: 0
# Processed by: cddbd v1.5.2PL0 Copyright (c) Steve Scherf et al.
# Submitted via: dBpowerAMP V4.0
#
DISCID=75050b0a
DTITLE=Buddy Moss - The George Mitchell Collection
DYEAR=2006
DGENRE=Blues
TTITLE0=In The Evening
TTITLE1=Amy
TTITLE2=Hey Lawdy Mama
TTITLE3=Cold Rainy Day
TTITLE4=Blue Shadow Falling
TTITLE5=Instrumental #1
TTITLE6=Thousand Woman Blues
TTITLE7=Unfinished Business
TTITLE8=You Need A Woman
TTITLE9=That Will Never Happen
EXTD=
EXTT0=
EXTT1=
EXTT2=
EXTT3=
EXTT4=
EXTT5=
EXTT6=
EXTT7=
EXTT8=
EXTT9=
PLAYORDER=
